<?xml version="1.0" encoding="utf-8"?>
<!-- Generator: Adobe Illustrator 23.0.1, SVG Export Plug-In . SVG Version: 6.00 Build 0)  -->
<svg version="1.1" id="Layer_1" xmlns="http://www.w3.org/2000/svg" xmlns:xlink="http://www.w3.org/1999/xlink" x="0px" y="0px"
	 viewBox="0 0 492.4 111.9" style="enable-background:new 0 0 492.4 111.9;" xml:space="preserve">
<style type="text/css">
	.st0{stroke:#000000;stroke-width:3;}
	.st1{fill:none;stroke:#000000;stroke-width:3.7;}
</style>
<g>
	<path class="st0" d="M168.4,96.7v0.7h-1.3v-0.7V50.2c0-0.7,1-0.9,1.3-0.3L187.7,95L207,49.9c0.3-0.6,1.3-0.4,1.3,0.3l0.1,46.5v0.7
		h-1.3v-0.7L207,53.4l-18.8,43.5c-0.2,0.5-1,0.5-1.2,0l-18.7-43.6v43.4H168.4z"/>
	<path class="st0" d="M277,49.4h15.9h0.7v1.4h-0.7H277v45.8v0.7h-1.3v-0.7V50.8h-16H259v-1.4h0.7h16H277z"/>
	<path class="st0" d="M334.4,49.4h0.7v1.4h-0.7h-29.9v21.9h21.7h0.7v1.4h-0.7h-21.7V96h29.9h0.7v1.4h-0.7h-30.5
		c-0.4,0-0.7-0.3-0.7-0.7V74.1v-1.4V50.1c0-0.4,0.3-0.7,0.7-0.7L334.4,49.4L334.4,49.4z"/>
	<path class="st0" d="M369.2,74c4,3.2,6.9,7.3,11.3,22.5l0.3,0.9h-1.4l-0.2-0.5c-4.6-16.2-7.6-19.5-12.1-22.8h-18.5v22.6v0.7h-1.3
		v-0.7V74.1l0,0v-0.7V50.2c0-0.4,0.3-0.7,0.7-0.7l19.3-0.1c7.3,0,13.2,5.6,13.2,12.4C380.5,68,375.6,73.1,369.2,74z M365.1,72.7
		L365.1,72.7h2.2c6.4,0,11.8-4.8,11.8-10.9s-5.4-11-11.9-11h-18.7v21.9H365.1z"/>
	<path class="st0" d="M393.5,50.1v-0.7h1.3v0.7v46.5v0.7h-1.3v-0.7V50.1z"/>
	<path class="st0" d="M454.6,50.1v-0.7h1.3v0.7v45.8h24.6h0.7v1.4h-0.7h-25.2c-0.4,0-0.7-0.3-0.7-0.7L454.6,50.1L454.6,50.1z"/>
	<g>
		<path class="st0" d="M219.1,96.9l-0.1,0.4h-1.5l0.4-1l19.3-46.5c0.2-0.5,1-0.5,1.2,0l19.3,46.5l0.4,1h-1.5l-0.1-0.4l-18.7-45
			L219.1,96.9z"/>
		<line class="st1" x1="234.8" y1="97" x2="255.6" y2="97"/>
	</g>
	<g>
		<path class="st0" d="M406.1,96.9l-0.1,0.4h-1.5l0.4-1l19.3-46.5c0.2-0.5,1-0.5,1.2,0l19.3,46.5l0.4,1h-1.5l-0.1-0.4l-18.8-45
			L406.1,96.9z"/>
		<line class="st1" x1="421.8" y1="97" x2="442.5" y2="97"/>
	</g>
	<g>
		<rect x="-3.6" y="46.5" transform="matrix(0.7072 -0.707 0.707 0.7072 -24.6765 51.4775)" width="106.9" height="18.1"/>
		<polyline points="98.4,74.3 146,24.1 133.1,12.5 101.5,44.4 		"/>
		<polyline points="72.6,57.7 72.6,78.1 90.8,99.5 90.8,36.2 		"/>
		<polyline points="124.5,57.7 124.5,78.1 142.7,99.5 142.7,36.2 		"/>
	</g>
</g>
</svg>
